<?xml version="1.0" encoding="UTF-8"?>
<!DOCTYPE svg PUBLIC "-//W3C//DTD SVG 1.1//EN" "http://www.w3.org/Graphics/SVG/1.1/DTD/svg11.dtd">
<svg xmlns="http://www.w3.org/2000/svg" version="1.1" width="279px" height="278px" style="shape-rendering:geometricPrecision; text-rendering:geometricPrecision; image-rendering:optimizeQuality; fill-rule:evenodd; clip-rule:evenodd" xmlns:xlink="http://www.w3.org/1999/xlink">
<g><path style="opacity:0.996" fill="#12c2fe" d="M 126.5,7.5 C 183.376,5.01246 226.209,28.0125 255,76.5C 279.123,127.717 274.456,176.05 241,221.5C 204.265,262.854 158.765,277.354 104.5,265C 49.6565,247.493 17.8231,210.327 9,153.5C 4.98038,95.0289 28.147,51.1956 78.5,22C 93.8489,14.6024 109.849,9.76907 126.5,7.5 Z"/></g>
<g><path style="opacity:1" fill="#080b0d" d="M 56.5,75.5 C 102.835,75.3333 149.168,75.5 195.5,76C 229.925,84.3479 243.425,105.848 236,140.5C 226.581,161.81 210.081,172.477 186.5,172.5C 186.711,186.259 180.378,195.426 167.5,200C 134.509,201.318 101.509,201.651 68.5,201C 59.9488,199.149 53.7821,194.315 50,186.5C 48.7846,177.56 48.118,168.56 48,159.5C 47.3333,134.167 47.3333,108.833 48,83.5C 50.0738,79.9231 52.9072,77.2565 56.5,75.5 Z"/></g>
<g><path style="opacity:1" fill="#fdfcfc" d="M 57.5,84.5 C 104.168,84.3333 150.835,84.5 197.5,85C 222.671,92.1698 233.171,108.67 229,134.5C 223.895,149.937 213.395,159.437 197.5,163C 191.883,164.052 186.216,164.718 180.5,165C 180,165.5 179.5,166 179,166.5C 179.154,173.166 177.82,179.499 175,185.5C 172.441,188.531 169.274,190.698 165.5,192C 132.5,192.667 99.5,192.667 66.5,192C 61.8526,189.894 58.686,186.394 57,181.5C 56.1747,149.095 56.3414,116.762 57.5,84.5 Z"/></g>
<g><path style="opacity:1" fill="#050707" d="M 181.5,98.5 C 209.113,96.9404 219.946,109.607 214,136.5C 205.513,148.883 194.18,152.883 180,148.5C 179.333,132.5 179.333,116.5 180,100.5C 180.717,99.9558 181.217,99.2891 181.5,98.5 Z"/></g>
<g><path style="opacity:1" fill="#ff5b71" d="M 149.5,112.5 C 137.018,115.28 125.518,118.947 115,123.5C 114.667,123.167 114.333,122.833 114,122.5C 103.691,126.771 92.8574,130.438 81.5,133.5C 77.2634,121.734 80.93,113.234 92.5,108C 102.53,105.481 111.03,107.981 118,115.5C 124.618,108.185 132.784,105.685 142.5,108C 145.239,109.026 147.572,110.526 149.5,112.5 Z"/></g>
<g><path style="opacity:1" fill="#12c0fb" d="M 187.5,107.5 C 203.306,107.061 209.806,114.728 207,130.5C 203.346,138.917 196.846,142.584 187.5,141.5C 187.5,130.167 187.5,118.833 187.5,107.5 Z"/></g>
<g><path style="opacity:1" fill="#ff5b67" d="M 149.5,112.5 C 152.323,113.992 153.99,116.326 154.5,119.5C 151.615,118.672 148.949,119.339 146.5,121.5C 145.914,121.291 145.414,120.957 145,120.5C 130.012,125.832 115.012,131.165 100,136.5C 99.6667,136.167 99.3333,135.833 99,135.5C 94.3104,137.282 89.8104,139.282 85.5,141.5C 83.659,139.151 82.3257,136.485 81.5,133.5C 92.8574,130.438 103.691,126.771 114,122.5C 114.333,122.833 114.667,123.167 115,123.5C 125.518,118.947 137.018,115.28 149.5,112.5 Z"/></g>
<g><path style="opacity:1" fill="#ff5e5d" d="M 154.5,119.5 C 156.712,127.452 155.212,134.785 150,141.5C 140.286,152.881 129.62,163.215 118,172.5C 106.375,163.042 95.5412,152.709 85.5,141.5C 89.8104,139.282 94.3104,137.282 99,135.5C 99.3333,135.833 99.6667,136.167 100,136.5C 115.012,131.165 130.012,125.832 145,120.5C 145.414,120.957 145.914,121.291 146.5,121.5C 148.949,119.339 151.615,118.672 154.5,119.5 Z"/></g>
</svg>
