<?xml version="1.0"?>
<svg width="25" height="25" xmlns="http://www.w3.org/2000/svg" xmlns:svg="http://www.w3.org/2000/svg">
 <g class="layer">
  <title>Layer 1</title>
  <path d="m12.5,6.25c0.41,0 0.75,-0.34 0.75,-0.75c0,-0.41 -0.34,-0.75 -0.75,-0.75l0,1.5zm7.75,6.25c0,-0.41 -0.34,-0.75 -0.75,-0.75c-0.41,0 -0.75,0.34 -0.75,0.75l1.5,0zm-0.75,-6.25c0.41,0 0.75,-0.34 0.75,-0.75c0,-0.41 -0.34,-0.75 -0.75,-0.75l0,1.5zm-4.09,-1.5c-0.41,0 -0.75,0.34 -0.75,0.75c0,0.41 0.34,0.75 0.75,0.75l0,-1.5zm4.84,0.75c0,-0.41 -0.34,-0.75 -0.75,-0.75c-0.41,0 -0.75,0.34 -0.75,0.75l1.5,0zm-1.5,4.14c0,0.42 0.34,0.75 0.75,0.75c0.41,0 0.75,-0.33 0.75,-0.75l-1.5,0zm1.28,-3.61c0.29,-0.29 0.29,-0.77 0,-1.06c-0.29,-0.29 -0.77,-0.29 -1.06,0l1.06,1.06zm-8.06,5.94c-0.29,0.29 -0.29,0.77 0,1.06c0.29,0.29 0.77,0.29 1.06,0l-1.06,-1.06zm0.53,-7.22l-3,0l0,1.5l3,0l0,-1.5zm-3,0c-2.62,0 -4.75,2.13 -4.75,4.75l1.5,0c0,-1.79 1.46,-3.25 3.25,-3.25l0,-1.5zm-4.75,4.75l0,6l1.5,0l0,-6l-1.5,0zm0,6c0,2.62 2.13,4.75 4.75,4.75l0,-1.5c-1.79,0 -3.25,-1.46 -3.25,-3.25l-1.5,0zm4.75,4.75l6,0l0,-1.5l-6,0l0,1.5zm6,0c2.62,0 4.75,-2.13 4.75,-4.75l-1.5,0c0,1.79 -1.46,3.25 -3.25,3.25l0,1.5zm4.75,-4.75l0,-3l-1.5,0l0,3l1.5,0zm-0.75,-10.75l-4.09,0l0,1.5l4.09,0l0,-1.5zm-0.75,0.75l0,4.14l1.5,0l0,-4.14l-1.5,0zm0.22,-0.53l-7,7l1.06,1.06l7,-7l-1.06,-1.06z" fill="#ffffff" id="svg_1"/>
 </g>
</svg>